<?xml version="1.0" encoding="UTF-8"?>
<svg id="logo-svg" width="200" height="78.909" preserveAspectRatio="xMinYMin meet" version="1.1" viewBox="0 8.5 275 78.909" xml:space="preserve" xmlns="http://www.w3.org/2000/svg">

  <style type="text/css">
   .logo_letters{fill:#282;}
   .trapezoid {fill:#bfb;}
  </style>

  <g id="Trapezoid" transform="translate(0,8.5)">
    <polygon class="trapezoid" points="0 0 275 0 247 108.5 24 108.5"/>
  </g><g fill="#282" stroke-width="1.375">

  
  <g aria-label="The"><path d="m63.319 32.273q0 0.35062-0.22688 0.61875-0.20625 0.2475-0.53625 0.2475-0.18562 0-0.70125-0.165-0.495-0.18562-0.825-0.18562-0.88688 0-1.4231 0-0.30938 0-0.35062 0.06188-0.02063 0.04125-0.06188 0.39188-0.0825 0.51562-0.2475 1.5469-0.39188 2.805-0.39188 6.3319 0 2.3925 0.55688 3.2794v0.55688q-0.39188 0.20625-0.61875 0.20625-1.32 0-1.7119-1.2788-0.18562-0.61875-0.18562-2.3719 0-2.0419 0.0825-3.1762 0.02062-0.495 0.22688-2.3719 0.165-1.4644 0.165-2.3719l-0.02063-0.59812q-0.28875 0.02063-1.1138 0.14438-0.68062 0.10312-1.1138 0.10312-1.4231 0-1.4231-0.84562 0-0.35062 0.20625-0.4125 0.30938-0.45375 3.2381-0.78375 2.2688-0.2475 3.6712-0.2475 0.99 0 1.7325 0.2475 1.0725 0.35062 1.0725 1.0725z"/><path d="m71.042 45.143q-0.39188 0.39188-1.0312 0.39188-0.43312 0-0.88688-0.53625 0.02062-1.815 0.02062-2.805 0-4.5788-1.3406-4.5788-1.3819 0-1.3819 3.6919 0 0.20625 0.02062 0.59812 0 0.39188 0 0.59812 0 0.30938 0.10312 0.94875 0.10312 0.61875 0.10312 0.92812 0 0.26812-0.33 0.47438-0.30938 0.22688-0.5775 0.22688-0.51562 0-0.88688-0.4125-0.35062-0.43312-0.35062-0.94875l0.12375-11.921q0-0.06187-0.02062-0.165-0.02062-0.10312-0.02062-0.14438 0-0.7425 0.825-0.7425 0.39188 0 0.9075 0.37125 0.51562 0.35062 0.51562 0.72188 0 0.45375-0.20625 1.3406-0.18562 0.88688-0.18562 1.3406 0 0.5775 0.04125 1.8356 0.45375-0.26812 0.76312-0.26812 0.80438 0 1.7531 0.39188 1.2169 0.51562 1.6912 1.6706 0.35062 0.86625 0.35062 2.3925z"/><path d="m78.868 42.998q0 1.0312-1.4025 1.6088-1.0931 0.45375-2.2894 0.45375-3.1762 0-3.1762-3.6094 0-1.485 0.72188-3.3 0.88688-2.2275 2.145-2.2275 1.1344 0 2.4338 1.0106 1.32 1.0106 1.32 2.1038 0 1.3612-1.2169 2.1656-1.0725 0.72188-2.5575 0.72188-0.28875 0-0.92812-0.35062 0.0825 1.9594 1.155 1.9594 0.9075 0 1.7738-0.51562 0.88688-0.51562 1.1344-0.51562 0.88688 0 0.88688 0.495zm-2.2481-3.8981q0-0.51562-0.30938-0.96938-0.28875-0.47438-0.78375-0.47438-0.68062 0-1.0519 0.59812-0.30938 0.51562-0.30938 1.2169 0 0.39188 0.26812 0.63938t0.68062 0.2475q1.5056 0 1.5056-1.2581z"/></g><g aria-label="Pragmatice Panda"><path d="m40.84 50.84q0 0.80666-0.11 1.43-1.43 8.47-8.03 8.47-3.3733 0-6.05-1.7233v0.77q-0.03667 2.4567 0.44 3.3733 0.69667 1.2833 0.69667 1.4667 0 0.73333-0.58667 1.2833-0.55 0.55-1.2833 0.55-1.65 0-2.2367-1.1733-0.33-0.69667-0.44-2.6033-0.07333-1.2467-0.07333-2.86 0-0.62333 0.14667-1.87 0.18333-1.2467 0.18333-1.9067v-2.4933q-0.03667-1.1 0.14667-3.2267 0.18333-2.1633 0.18333-3.19v-3.3q0-0.07333-0.36667-1.98 0.95333-0.88 1.7967-0.88 0.99 0 1.5767 0.73333 0.58667 0.69667 0.58667 1.7233 0 0.25667-0.03667 0.51333 2.42-3.19 6.1233-3.19 3.4833 0 5.5 2.6033 1.7967 2.3467 1.7967 5.94 0 0.25667 0 0.77 0.03667 0.51333 0.03667 0.77zm-3.3-0.58667q0-2.53-0.77-4.3267-1.0633-2.42-3.2633-2.42-2.8233 0-4.84 3.4467-1.7967 3.0067-1.7967 6.05 0 5.0967 5.1333 5.0967 2.75 0 4.0333-2.3833 0.73333-1.32 1.3933-4.8033 0.11-0.69667 0.11-0.66z"/><path d="m52.986 53.407q0 0.25667-0.07333 0.80667-0.77 1.1-1.6133 1.1-0.69666 0-1.2467-0.80667-0.07333-1.65-1.1733-1.65-0.66 0-1.6133 3.4833-0.44 1.54-0.44 4.29 0 2.6033 0.25667 3.1533 0.29333 0.69667 0.29333 0.95333 0 0.62333-0.58667 1.0267-0.55 0.36667-1.2467 0.36667-1.98 0-1.98-1.8333 0-0.18333 0.07333-0.51333 0.11-0.33 0.11-0.47667 0-1.87-0.18333-5.5367-0.18333-3.7033-0.18333-5.5367 0-1.65 1.98-1.65 1.1733 0 1.6133 0.69667 1.0267-1.1367 2.31-1.1367 0.88 0 1.6867 0.47667 0.55 0.29333 1.2833 1.2833 0.73333 0.95333 0.73333 1.5033z"/><path d="m66.466 59.787q0 4.73-0.29333 6.6733-0.18333 1.1367-1.54 1.1367-2.0533 0-1.8333-2.0533-1.8333 0.88-3.8133 0.88-1.9067 0-3.63-0.95333-2.0533-1.1367-2.0533-2.8967 0-1.7233 2.3467-3.2267 2.1267-1.3567 3.9967-1.3567h3.1167v-0.88q0.03667-3.85-2.2733-3.85-2.8967 0-2.8967 2.7133 0 0.91667-1.0267 0.91667-0.62333 0-1.32-0.55-0.66-0.58667-0.66-1.21 0-2.0533 1.4667-3.3733 1.4667-1.32 3.52-1.32 6.8933 0 6.8933 9.35zm-3.7033 1.32q0-0.73333-1.1-0.73333-4.5833 0-4.5833 2.1633 0 1.1733 2.0167 1.1733 1.2467 0 2.3467-0.69667 1.32-0.77 1.32-1.9067z"/><path d="m81.822 55.13q-0.07333 0.91666-0.47667 3.2267-0.36667 2.0167-0.36667 3.2267 0 1.1 0.11 3.3 0.11 2.2 0.11 3.3 0 2.2733-0.44 3.3733-0.51333 1.3933-1.9433 2.2367-1.43 0.88-2.97 0.88-1.6133 0-3.9967-0.88-2.86-1.0267-2.86-2.2733 0-1.6133 1.5033-1.6133 0.69667 0 0.95333 0.40333 0.47667 0.73333 0.62333 0.88 0.18333 0.14667 1.21 0.33 1.0267 0.22 1.43 0.22 3.3 0 3.3-4.1433 0-1.21-0.11-2.0533-1.5767 1.3567-3.7767 1.3567-0.91666 0-2.0533-0.51333-1.1367-0.51333-1.7233-1.21-1.1367-1.32-1.1367-3.9233 0-3.1167 1.43-6.8567 1.76-4.5833 4.29-4.5833 1.54 0 2.9333 1.43 1.0267 1.3567 2.0533 2.6767 0.29333 0.36667 0.91666 0.66 0.77 0.36667 0.99 0.55zm-3.7033 2.2q0-0.55-0.51333-0.91666-0.22-3.3733-2.3467-3.3733-1.21 0-2.0167 3.41-0.58667 2.6033-0.58667 4.51 0 3.5933 1.87 3.5933 1.76 0 2.7867-2.86 0.80666-2.2 0.80666-4.3633z"/><path d="m102.71 65.947q-1.2467 0.77-1.9067 0.77-0.47667 0-1.4667-0.51333 0-0.58667 0.03667-2.0167 0.03667-1.2833 0.03667-2.0167 0-9.7533-1.6133-9.7533-1.21 0-1.9433 2.97-0.55 2.1633-0.55 3.9967v3.3733q0 0.25667 0.14667 0.77 0.18333 0.47667 0.18333 0.73333 0 0.58667-0.62333 1.0633-0.62333 0.44-1.21 0.44-0.62333 0-1.2467-0.62333-0.62333-0.62333-0.62333-1.21v-6.82q0-4.1433-0.91667-4.1433-0.14667 0-0.62333 0.69667-2.6033 3.52-2.6033 7.5533 0 0.58667 0.14667 1.7233 0.14667 1.1 0.14667 1.65 0 0.73333-0.47667 1.21-0.44 0.47667-1.1733 0.47667-0.84333 0-1.3567-0.58667-0.18333-0.25667-0.44-1.7233-0.22-1.3567-0.22-1.87v-7.9933q0-0.88 0.44-2.3467 0.55-1.76 1.1733-1.76 0.73333 0 1.32 0.58667 0.58667 0.55 0.51333 1.2833 1.0633-1.76 2.75-1.76 2.09 0 3.41 2.7867 0.69666-1.65 1.2467-2.2733 0.91666-1.0633 2.2733-1.0633 1.3567 0 2.75 1.43 2.42 2.4567 2.42 8.3967z"/><path d="m118.31 59.787q0 4.73-0.29333 6.6733-0.18334 1.1367-1.54 1.1367-2.0533 0-1.8333-2.0533-1.8333 0.88-3.8133 0.88-1.9067 0-3.63-0.95333-2.0533-1.1367-2.0533-2.8967 0-1.7233 2.3467-3.2267 2.1267-1.3567 3.9967-1.3567h3.1167v-0.88q0.0367-3.85-2.2733-3.85-2.8967 0-2.8967 2.7133 0 0.91667-1.0267 0.91667-0.62333 0-1.32-0.55-0.66-0.58667-0.66-1.21 0-2.0533 1.4667-3.3733 1.4667-1.32 3.52-1.32 6.8933 0 6.8933 9.35zm-3.7033 1.32q0-0.73333-1.1-0.73333-4.5833 0-4.5833 2.1633 0 1.1733 2.0167 1.1733 1.2467 0 2.3467-0.69667 1.32-0.77 1.32-1.9067z"/><path d="m128.65 52.894q0 0.99-3.0433 1.3933-0.0733 0.80667-0.0733 3.6667v2.42q0 0.73333 0.22 2.1633 0.25666 1.43 0.25666 2.1267 0 0.58667-0.58666 1.0633-0.58667 0.44-1.1733 0.44-0.91667 0-1.54-1.5767-0.47667-1.21-0.47667-2.3467v-7.7733q-1.6867-0.25667-1.9433-0.33-0.95333-0.29333-0.95333-0.84333 0-0.14667 0.0733-0.33 0.95333-1.3567 2.1267-1.3567 0.0733 0 0.22 0 0.14666 0.03667 0.22 0.03667 0.76999 0 0.73333-1.7967v-2.6767q-0.22-0.40333-0.22-0.69667 0-0.47667 0.55-0.84333 0.58666-0.40333 1.1-0.40333 0.77 0 1.4667 0.73333 0.69667 0.69666 0.69667 1.5033 0 0.88-0.29334 1.76-0.25666 0.84333-0.22 1.76v0.14667q2.86 0.29333 2.86 1.76z"/><path d="m134.84 46.77q0 0.80667-0.55 1.32-0.55 0.51333-1.3567 0.51333-0.95334 0-1.7967-0.66-0.80667-0.66-0.80667-1.6133 0-0.80667 0.55-1.32 0.58667-0.51333 1.43-0.51333 0.99 0 1.76 0.66 0.77 0.62333 0.77 1.6133zm-0.33 5.1333q0 0.66-0.29333 1.87-0.29334 1.21-0.29334 1.87v7.5533q0 0.69667 0.40334 2.2-0.55 0.84333-1.21 0.84333-2.31 0-2.53-2.31-0.36666-4.29-0.36666-6.4533 0-3.63 0.29333-6.0867-0.0367-0.18333-0.0367-0.36667 0-0.66 1.0267-0.66 0.91666 0 1.8333 0.36667 1.1733 0.40333 1.1733 1.1733z"/><path d="m149.16 61.877q0 1.1367-1.7233 2.6767-1.54 1.43-2.7867 1.7967-1.21 0.36667-2.31 0.36667-2.8967 0-4.5467-1.8333-1.6133-1.8333-1.6133-4.73 0-2.8233 1.5033-6.3067 1.7967-4.18 4.18-4.18 1.32 0 3.19 1.0267 1.98 1.1367 2.31 2.2733 0.29334 0.99 0.29334 2.2367 0 1.1367-0.47667 2.5667-0.58667 1.8333-1.4667 1.8333-0.62334 0-1.1733-0.36667-0.66-0.40333-0.66-0.99 0-0.03667 0.33-0.84333 0.18334-0.36667 0.18334-2.0167 0-1.3567-0.11-1.76-0.22-1.1367-1.0267-1.1367-1.7967 0-2.7867 3.1167-0.73333 2.31-0.73333 4.6567 0 3.9233 2.4933 3.9233 0.99 0 2.2733-1.0267 1.1733-0.95333 1.65-1.9433 0.58666-1.1733 1.43-1.1733 0.55 0 1.0633 0.66 0.51333 0.62333 0.51333 1.1733z"/><path d="m163.11 62.794q0 1.8333-2.4933 2.86-1.9433 0.80667-4.07 0.80667-5.6467 0-5.6467-6.4167 0-2.64 1.2833-5.8667 1.5767-3.96 3.8133-3.96 2.0167 0 4.3267 1.7967 2.3467 1.7967 2.3467 3.74 0 2.42-2.1633 3.85-1.9067 1.2833-4.5467 1.2833-0.51334 0-1.65-0.62333 0.14666 3.4833 2.0533 3.4833 1.6133 0 3.1533-0.91666 1.5767-0.91667 2.0167-0.91667 1.5767 0 1.5767 0.88zm-3.9967-6.93q0-0.91666-0.55-1.7233-0.51334-0.84333-1.3933-0.84333-1.21 0-1.87 1.0633-0.55 0.91666-0.55 2.1633 0 0.69667 0.47666 1.1367 0.47667 0.44 1.21 0.44 2.6767 0 2.6767-2.2367z"/><path d="m189 50.84q0 0.80666-0.11 1.43-1.43 8.47-8.03 8.47-3.3733 0-6.05-1.7233v0.77q-0.0367 2.4567 0.44 3.3733 0.69667 1.2833 0.69667 1.4667 0 0.73333-0.58667 1.2833-0.55 0.55-1.2833 0.55-1.65 0-2.2367-1.1733-0.33-0.69667-0.44-2.6033-0.0733-1.2467-0.0733-2.86 0-0.62333 0.14667-1.87 0.18333-1.2467 0.18333-1.9067v-2.4933q-0.0367-1.1 0.14667-3.2267 0.18333-2.1633 0.18333-3.19v-3.3q0-0.07333-0.36667-1.98 0.95334-0.88 1.7967-0.88 0.99 0 1.5767 0.73333 0.58667 0.69667 0.58667 1.7233 0 0.25667-0.0367 0.51333 2.42-3.19 6.1233-3.19 3.4833 0 5.5 2.6033 1.7967 2.3467 1.7967 5.94 0 0.25667 0 0.77 0.0367 0.51333 0.0367 0.77zm-3.3-0.58667q0-2.53-0.77-4.3267-1.0633-2.42-3.2633-2.42-2.8233 0-4.84 3.4467-1.7967 3.0067-1.7967 6.05 0 5.0967 5.1333 5.0967 2.75 0 4.0333-2.3833 0.73333-1.32 1.3933-4.8033 0.11-0.69667 0.11-0.66z"/><path d="m203.68 59.787q0 4.73-0.29334 6.6733-0.18333 1.1367-1.54 1.1367-2.0533 0-1.8333-2.0533-1.8333 0.88-3.8133 0.88-1.9067 0-3.63-0.95333-2.0533-1.1367-2.0533-2.8967 0-1.7233 2.3467-3.2267 2.1267-1.3567 3.9967-1.3567h3.1167v-0.88q0.0367-3.85-2.2733-3.85-2.8967 0-2.8967 2.7133 0 0.91667-1.0267 0.91667-0.62333 0-1.32-0.55-0.66-0.58667-0.66-1.21 0-2.0533 1.4667-3.3733 1.4667-1.32 3.52-1.32 6.8933 0 6.8933 9.35zm-3.7033 1.32q0-0.73333-1.1-0.73333-4.5833 0-4.5833 2.1633 0 1.1733 2.0167 1.1733 1.2467 0 2.3467-0.69667 1.32-0.77 1.32-1.9067z"/><path d="m219.65 65.764q-0.54999 0.84333-1.3567 0.84333-0.62333 0-2.0533-0.73333v-0.44q0-0.80667 0.0367-2.3833 0.0733-1.5767 0.0733-2.31 0-7.8467-2.3467-7.8467-0.65999 0-1.5033 1.0267-2.6033 3.1533-2.6033 7.59 0 0.62333 0.22 1.87 0.25667 1.21 0.25667 1.8333 0 0.51333-0.47667 0.84333-0.47666 0.33-1.0267 0.33-2.2 0-2.2-2.7867v-7.6633q0-0.29333 0.0733-0.84333 0.0733-0.58667 0.0733-0.88 0-0.44-0.14667-1.2833-0.11-0.84333-0.11-1.2467 0-0.58667 0.66-1.1 0.69666-0.55 1.2467-0.55 0.80667 0 1.65 0.91666l-0.11 1.4667q1.3567-2.1633 3.3367-2.1633 1.2833 0 2.7133 0.88 1.43 0.88 2.09 1.98 1.5033 2.7867 1.5033 7.3333z"/><path d="m234.92 43.727q0 0.80667-0.22 2.09-0.29333 1.7233-0.36667 2.0533-0.11 1.1367-0.36666 6.71-0.22 5.5733-0.22 6.16 0 3.52 0.77 5.28-0.62334 1.0267-1.43 1.0267-0.84334 0-1.5033-0.66-0.66-0.62333-0.73334-1.4667-1.7233 1.5767-3.52 1.5767-2.6767 0-4.1433-1.87-1.3567-1.6867-1.3567-4.4367 0-3.2267 1.32-6.5633 1.6867-4.2167 4.4-4.2167 1.6133 0 3.3 1.43 0.18334-1.7233 0.18334-8.8 0-0.66 0.98999-0.66 1.1733 0 2.0167 0.58667 0.88 0.58667 0.88 1.76zm-4.2533 12.43q0-1.2467-0.55-2.2733-0.69667-1.2467-1.8333-1.2467-1.65 0-2.53 3.2633-0.66 2.3467-0.66 4.62 0 3.41 1.98 3.41 2.0533 0 2.97-3.0433 0.62333-2.0533 0.62333-4.73z"/><path d="m249.34 59.787q0 4.73-0.29333 6.6733-0.18333 1.1367-1.54 1.1367-2.0533 0-1.8333-2.0533-1.8333 0.88-3.8133 0.88-1.9067 0-3.63-0.95333-2.0533-1.1367-2.0533-2.8967 0-1.7233 2.3467-3.2267 2.1267-1.3567 3.9967-1.3567h3.1167v-0.88q0.0367-3.85-2.2733-3.85-2.8967 0-2.8967 2.7133 0 0.91667-1.0267 0.91667-0.62334 0-1.32-0.55-0.66-0.58667-0.66-1.21 0-2.0533 1.4667-3.3733 1.4667-1.32 3.52-1.32 6.8933 0 6.8933 9.35zm-3.7033 1.32q0-0.73333-1.1-0.73333-4.5833 0-4.5833 2.1633 0 1.1733 2.0167 1.1733 1.2467 0 2.3467-0.69667 1.32-0.77 1.32-1.9067z"/></g><g aria-label="Bookshelve"><path d="m88.599 87.361q0 1.21-0.58667 2.2367-2.64 4.51-9.0933 4.51-1.6867 0-3.8867-0.47667-0.40333 1.1367-1.3567 1.1367-1.76 0-1.76-1.4667 0-0.07333 0-0.25667 0-0.18333 0-0.25667 0-0.33-0.11-0.40333-0.47667-0.22-0.91667-0.47667-0.44-0.25667-0.44-0.91667 0-1.1367 1.1-1.2833v-0.07333q0-0.69667 0.03667-2.1633 0.03667-1.3567 0.03667-2.2v-0.25667q-0.77-0.47667-0.77-1.1 0-0.69667 0.69667-1.21v-11.22q0-0.58667 0.62333-1.1733 0.66-0.62333 1.2467-0.62333 0.80667 0 1.1 0.22 0.36667 0.40333 0.73333 0.80667l-0.29333 1.65q2.53-3.41 6.4167-3.41 3.08 0 4.84 2.2367 1.6133 2.0167 1.6133 5.17 0 1.7967-0.77 3.63-0.77 1.9433-2.0533 3.08 3.5933 1.1367 3.5933 4.29zm-4.1067-11.147q0-4.51-3.2633-4.51-2.3467 0-4.3633 3.1167-1.87 2.8233-1.87 5.28v2.3467h1.98q3.85 0 5.5-1.1367 2.0167-1.43 2.0167-5.0967zm0.77 10.927q0-1.43-3.5567-1.87-1.4667-0.14667-4.84-0.14667-1.21 0-1.98 0.07333-0.03667 0.95333-0.03667 1.76v2.2733q0 0.77 0.03667 1.32 1.7967 0.73333 3.96 0.73333 1.98 0 4.0333-1.1 2.3833-1.2467 2.3833-3.0433z"/><path d="m104.21 86.957q0 3.3-1.65 5.6467-1.9067 2.6767-5.06 2.6767-3.2267 0-4.8767-2.2-1.5033-1.9433-1.5033-5.28 0-3.3 1.65-6.2333 1.9067-3.4833 4.95-3.4833 0.95333 0 2.3833 0.84333 4.1067 2.4567 4.1067 8.03zm-3.2267-0.07333q0-5.61-2.7133-5.61-1.9433 0-2.9333 2.3833-0.73333 1.7967-0.73333 4.07 0 4.8767 2.8967 4.8767 1.87 0 2.7867-2.0167 0.69667-1.54 0.69667-3.7033z"/><path d="m119.45 86.957q0 3.3-1.65 5.6467-1.9067 2.6767-5.06 2.6767-3.2267 0-4.8767-2.2-1.5033-1.9433-1.5033-5.28 0-3.3 1.65-6.2333 1.9067-3.4833 4.95-3.4833 0.95334 0 2.3833 0.84333 4.1067 2.4567 4.1067 8.03zm-3.2267-0.07333q0-5.61-2.7133-5.61-1.9433 0-2.9333 2.3833-0.73333 1.7967-0.73333 4.07 0 4.8767 2.8967 4.8767 1.87 0 2.7867-2.0167 0.69666-1.54 0.69666-3.7033z"/><path d="m135.94 95.317q-1.3933 1.0267-2.2 1.0267-1.0633 0-3.08-2.2-1.43-1.54-2.8233-3.1167-0.80667-0.95333-2.5667-2.6767l-0.11 0.07333v3.2267q0 0.29333 0.22 0.88 0.25667 0.55 0.25667 0.88 0 0.51333-0.55 0.88-0.51333 0.40333-1.0633 0.40333-0.95334 0-1.5767-0.62333-0.62333-0.62333-0.62333-1.5767v-4.84q0-0.44 0.11-1.32 0.14667-0.91667 0.14667-1.3567v-9.8633q0-2.2367-0.33-3.5933-0.14667-0.62333-0.14667-0.95333 0-0.69667 0.84333-1.2467 0.73333-0.51333 1.4667-0.51333 0.55 0 1.1733 0.44 0.66 0.40333 0.66 0.91666 0 0.14667-0.22 1.0267t-0.22 2.7133q0 0.58667-0.11 9.79 0.14666-0.14667 3.96-3.63 3.1533-2.9333 3.7033-2.9333 1.9433 0 1.87 2.3833v0.36667q-1.5767 0.91667-4.07 2.8967-3.1533 2.4567-3.1533 3.2633 0 0.07333 1.98 2.31 1.87 2.1267 2.3467 2.64 2.2 2.31 4.1067 3.1533z"/><path d="m146.8 90.477q0 1.7233-1.4667 3.0067-1.6133 1.3933-4.3267 1.3933-1.1733 0.03667-2.53-0.47667-4.4-1.65-4.4-2.6767 0-1.6133 2.31-1.6133 0.33 0 0.69666 0.03667 0.11 1.1 1.76 1.76 1.43 0.58667 2.75 0.47667 1.0633-0.07333 1.0633-0.77 0-0.11-0.0733-0.33-0.0367-0.22-0.0367-0.33 0-0.14667-1.3933-0.58667-1.5767-0.47667-1.76-0.55-4.18-2.4933-4.18-6.0133 0-2.1267 1.21-3.9233 1.3567-1.98 3.3733-1.98 1.5033 0 3.41 1.1733 1.9433 1.1733 2.3833 2.53 0.29333 0.95333 0.29333 1.5767 0 0.66-0.18333 1.1-0.22 0.55-0.44 1.1-0.69666 0.47667-1.3933 0.47667-0.36667 0-1.2467-0.44-0.84334-0.47667-0.84334-0.80667 0-0.14667 0.44-0.95333 0.25667-0.47667 0.25667-0.80666 0-2.2-1.7233-2.2-1.0267 0-1.5767 1.32-0.40333 1.0267-0.40333 2.2 0 1.4667 2.09 2.64 1.9067 0.84333 3.85 1.7233 2.09 0.95333 2.09 1.9433z"/><path d="m160.5 94.767q-0.69666 0.69667-1.8333 0.69667-0.77 0-1.5767-0.95333 0.0367-3.2267 0.0367-4.9867 0-8.14-2.3833-8.14-2.4567 0-2.4567 6.5633 0 0.36667 0.0367 1.0633 0 0.69667 0 1.0633 0 0.55 0.18333 1.6867 0.18333 1.1 0.18333 1.65 0 0.47667-0.58666 0.84333-0.55 0.40333-1.0267 0.40333-0.91667 0-1.5767-0.73333-0.62334-0.77-0.62334-1.6867l0.22-21.193q0-0.11-0.0367-0.29333-0.0367-0.18333-0.0367-0.25667 0-1.32 1.4667-1.32 0.69667 0 1.6133 0.66 0.91666 0.62333 0.91666 1.2833 0 0.80666-0.36667 2.3833-0.32999 1.5767-0.32999 2.3833 0 1.0267 0.0733 3.2633 0.80666-0.47667 1.3567-0.47667 1.43 0 3.1167 0.69667 2.1633 0.91667 3.0067 2.97 0.62333 1.54 0.62333 4.2533z"/><path d="m174.42 90.954q0 1.8333-2.4933 2.86-1.9433 0.80667-4.07 0.80667-5.6467 0-5.6467-6.4167 0-2.64 1.2833-5.8667 1.5767-3.96 3.8133-3.96 2.0167 0 4.3267 1.7967 2.3467 1.7967 2.3467 3.74 0 2.42-2.1633 3.85-1.9067 1.2833-4.5467 1.2833-0.51333 0-1.65-0.62333 0.14667 3.4833 2.0533 3.4833 1.6133 0 3.1533-0.91667 1.5767-0.91666 2.0167-0.91666 1.5767 0 1.5767 0.88zm-3.9967-6.93q0-0.91667-0.55-1.7233-0.51333-0.84333-1.3933-0.84333-1.21 0-1.87 1.0633-0.55 0.91667-0.55 2.1633 0 0.69667 0.47667 1.1367 0.47666 0.44 1.21 0.44 2.6767 0 2.6767-2.2367z"/><path d="m180.49 93.191q0 0.66-0.55 1.1-0.51333 0.47667-1.21 0.47667-2.31 0-2.31-6.05 0-2.75 0.0367-8.25 0.0733-5.5 0.0733-8.25 0-0.44-0.11-1.2833-0.11-0.84333-0.11-1.2467 1.21-0.80666 1.9067-0.80666 0.80667 0 1.54 0.55 0.73333 0.51333 0.73333 1.32 0 0.40333-0.18333 0.95333-0.25667 0.88-0.29333 0.95333-0.47667 2.2733-0.47667 6.4533 0 6.6367 0 6.82 0.11 4.62 0.77 6.4533 0.18333 0.51333 0.18333 0.80667z"/><path d="m194.32 80.137q0 2.64-1.6867 8.0667-1.98 6.2333-3.85 6.2333-2.6767 0-4.7667-5.2433-1.2833-3.2633-2.09-7.6267-0.18334-1.0633-0.18334-1.65t0.51334-1.0267q0.54999-0.47667 1.1367-0.47667 0.69667 0 2.1633 1.0633-0.25667 0.84333-0.25667 1.43 0 1.98 0.95334 5.17 0.99 3.19 2.1267 4.8033v0.11q1.32 0 2.0533-4.9867 0.51334-3.41 0.51334-6.2333 0-0.55 0.54999-0.95333 0.58667-0.40333 1.1367-0.40333 1.6867 0 1.6867 1.7233z"/><path d="m207.42 90.954q0 1.8333-2.4933 2.86-1.9433 0.80667-4.07 0.80667-5.6467 0-5.6467-6.4167 0-2.64 1.2833-5.8667 1.5767-3.96 3.8133-3.96 2.0167 0 4.3267 1.7967 2.3467 1.7967 2.3467 3.74 0 2.42-2.1633 3.85-1.9067 1.2833-4.5467 1.2833-0.51333 0-1.65-0.62333 0.14667 3.4833 2.0533 3.4833 1.6133 0 3.1533-0.91667 1.5767-0.91666 2.0167-0.91666 1.5767 0 1.5767 0.88zm-3.9967-6.93q0-0.91667-0.55-1.7233-0.51333-0.84333-1.3933-0.84333-1.21 0-1.87 1.0633-0.55 0.91667-0.55 2.1633 0 0.69667 0.47667 1.1367 0.47666 0.44 1.21 0.44 2.6767 0 2.6767-2.2367z"/></g>
  
</g></svg>
